# xmcd CD database file
#
# Track frame offsets:
#	150
#	18185
#	37080
#	54247
#	72760
#	90297
#	144232
#	171592
#	226852
#	248435
#	269060
#	288272
#	307775
#
# Disc length: 4359 seconds
#
# Revision: 0
# Processed by: cddbd v1.5.1PL0 Copyright (c) Steve Scherf et al.
# Submitted via: CDex 1.51
#
DISCID=a211050d
DTITLE=Varios - UNIVERSOS
DYEAR=1900
DGENRE=New Age
TTITLE0=Adiemus
TTITLE1=Dreadzone
TTITLE2=Madredeus
TTITLE3=Sacret Spirit
TTITLE4=Ennio Morricone
TTITLE5=Nacho Cano
TTITLE6=Sheila Chandra
TTITLE7=Pat Metheny
TTITLE8=Suzanne Ciani
TTITLE9=Rickie Lee Jones
TTITLE10=Mike Oldfield
TTITLE11=Enigma
TTITLE12=Michael Nyman
EXTD=
EXTT0=
EXTT1=
EXTT2=
EXTT3=
EXTT4=
EXTT5=
EXTT6=
EXTT7=
EXTT8=
EXTT9=
EXTT10=
EXTT11=
EXTT12=
PLAYORDER=
